<?xml version="1.0" encoding="UTF-8"?>
<svg id="Layer_1" data-name="Layer 1" xmlns="http://www.w3.org/2000/svg" viewBox="0 0 720 241.37">
  <defs>
    <style>
      .cls-1 {
        font-family: Constantia-Bold, Constantia;
        font-size: 50.5px;
        font-weight: 700;
      }

      .cls-1, .cls-2, .cls-3 {
        fill: #1f4b99;
      }

      .cls-4 {
        letter-spacing: .39em;
      }

      .cls-5 {
        letter-spacing: .4em;
      }

      .cls-6 {
        letter-spacing: .42em;
      }

      .cls-7 {
        letter-spacing: .42em;
      }

      .cls-2 {
        font-family: SourceSansRoman-Semibold, 'Source Sans Variable';
        font-size: 17.5px;
        font-variation-settings: 'wght' 600;
        font-weight: 600;
      }

      .cls-8 {
        letter-spacing: .1em;
      }

      .cls-9 {
        letter-spacing: .06em;
      }
    </style>
  </defs>
  <g>
    <text class="cls-1" transform="translate(235.29 85.18)"><tspan class="cls-8" x="0" y="0">WISDOM</tspan><tspan class="cls-9" x="255.15" y="0">W</tspan><tspan class="cls-8" x="307.53" y="0">OOD</tspan><tspan class="cls-8"><tspan x="0" y="54.46">HIGH</tspan></tspan></text>
    <text class="cls-2" transform="translate(238.54 174.6)"><tspan class="cls-6" x="0" y="0">NU</tspan><tspan class="cls-5" x="37.63" y="0">R</tspan><tspan class="cls-6" x="55.06" y="0">TURE | EXP</tspan><tspan class="cls-4" x="209.85" y="0">L</tspan><tspan class="cls-7" x="225.44" y="0">ORE | F</tspan><tspan class="cls-4" x="328.83" y="0">L</tspan><tspan class="cls-6" x="344.42" y="0">OURISH</tspan></text>
  </g>
  <g>
    <path class="cls-3" d="M87.33,208.16c-.5,0-1,0-1.5,0h-.83c-.94-.01-1.94-.06-3.16-.16-.4-.03-.78-.12-1.11-.19-.16-.04-.31-.07-.47-.1-.17-.03-.35-.04-.52-.05-.18,0-.38.02-.62-.03-.69-.14-1.38-.3-2.06-.46l-.72-.17c-.84-.2-1.67-.39-2.49-.63-.77-.22-1.52-.5-2.24-.77l-.35-.13c-.65-.24-1.29-.5-1.92-.78l-.47-.21c-.82-.36-1.66-.73-2.48-1.16-1.04-.55-2.09-1.17-3.22-1.89-1.75-1.12-3.44-2.42-5.02-3.85-1.8-1.63-3.28-3.16-4.52-4.68-1.06-1.29-2.02-2.65-2.91-3.93-.64-.93-1.21-1.89-1.73-2.8l-.1-.17c-.57-1-1.17-2.03-1.67-3.11-.47-1-.88-2.03-1.28-3.02l-.63-1.53c-.27-.64-.53-1.27-.75-1.93-.27-.81-.51-1.64-.74-2.46l-.43-1.48c-.15-.5-.3-1.01-.43-1.52-.11-.44-.19-.9-.28-1.35l-.1-.52c-.27-.63-.36-1.25-.44-1.8-.04-.27-.08-.55-.14-.82-.17-.67-.24-1.34-.31-1.98-.03-.27-.06-.53-.1-.8l-.23-1.6c-.07-.55-.15-1.11-.21-1.66-.05-.42-.08-.85-.11-1.27l-.06-.7c-.03-.4-.08-.79-.12-1.19-.09-.88-.18-1.75-.22-2.63-.04-.83-.03-1.65-.02-2.48,0-.25,0-.5,0-.75v-1.91c-.02-.75-.02-1.5,0-2.25.03-.76.09-1.51.16-2.27.04-.45.07-.89.1-1.34.02-.36.04-.71.06-1.07.02-.52.05-1.05.09-1.57.1-1.19.23-2.37.38-3.55.07-.55.16-1.1.25-1.65.07-.44.14-.89.21-1.33.08-.61.15-1.23.22-1.84l.1-.91c0-.09.02-.25.08-.42.25-.8.38-1.65.52-2.55l.09-.58c.09-.56.23-1.09.37-1.6.08-.29.16-.58.22-.87.1-.45.2-.91.29-1.36.13-.61.26-1.22.4-1.83.1-.41.22-.81.34-1.21.07-.23.14-.46.21-.7.06-.21.11-.42.16-.63.05-.2.1-.41.15-.61l.13-.48c.2-.77.41-1.54.63-2.3.1-.35.22-.7.33-1.04.15-.46.3-.92.42-1.39.07-.29.17-.56.28-.83.11-.28.21-.52.21-.71.02-.42.17-.75.28-.99.03-.05.05-.11.07-.16l.5-1.37c.33-.93.67-1.85,1.01-2.78l.05-.13c.55-1.48,1.11-2.96,1.69-4.43.22-.56.47-1.1.72-1.65.16-.36.33-.72.48-1.08.13-.31.25-.62.37-.93.16-.4.31-.8.49-1.19.51-1.13,1.03-2.26,1.57-3.38,1.01-2.13,2.1-4.4,3.34-6.6.35-.63.71-1.27,1.06-1.91.71-1.29,1.42-2.57,2.16-3.84,1.21-2.07,2.46-4.09,3.53-5.79.61-.97,1.27-1.92,1.91-2.84l.89-1.29c1.21-1.75,2.42-3.5,3.66-5.23.43-.6.91-1.17,1.36-1.71.25-.3.51-.6.75-.91.33-.41.65-.82.97-1.23.52-.67,1.04-1.34,1.58-1.99,1.1-1.32,2.2-2.6,3.29-3.81,1.22-1.35,2.66-2.95,4.17-4.51,1.04-1.08,2.11-2.12,3.19-3.17l1.21-1.19c.64-.63,1.28-1.26,1.96-1.86,1.35-1.19,2.8-2.45,4.27-3.64,1.8-1.46,3.61-2.85,5.3-4.14,1.24-.95,2.35-1.74,3.39-2.44,1.44-.96,2.88-1.86,4.35-2.77,1.1-.68,2.21-1.34,3.34-1.97,1.08-.61,2.17-1.2,3.27-1.78.82-.43,1.66-.85,2.5-1.24,1.1-.51,2.22-.98,3.34-1.46,1.12-.47,2.24-.93,3.37-1.37.39-.15.79-.28,1.19-.4l2.67-.88c.56-.19,1.12-.38,1.69-.56.21-.07.44-.11.66-.15.1-.02.2-.03.3-.06.35-.09.69-.18,1.04-.27.65-.17,1.31-.34,1.96-.49.45-.1.91-.18,1.37-.26.44-.08.87-.15,1.31-.25.63-.14,1.12-.2,1.64-.19h0s.18-.03.27-.05c.18-.04.37-.08.55-.09.47-.04.94-.08,1.4-.11.89-.07,1.73-.13,2.57-.25,1.19-.18,2.34-.16,3.46-.14.47,0,.94.02,1.4,0,.65-.01,1.34.06,2.12.2.51.1,1.04.14,1.6.19.59.05,1.2.1,1.83.22l2.36.43c1.02.18,2.01.47,2.96.74l.36.1c.74.21,1.51.47,2.37.78.62.23,1.24.5,1.85.76l.22.1c.74.32,1.48.66,2.21.99,1.61.74,3.11,1.68,4.36,2.51,2.88,1.91,5.53,4.18,7.86,6.75,1.8,1.99,3.45,4.18,5.05,6.71.65,1.03,1.21,1.99,1.71,2.94.27.52.51,1.05.75,1.59.2.44.4.89.62,1.32.61,1.21,1.1,2.46,1.57,3.68l.28.73c.35.88.6,1.78.85,2.65l.21.72c.39,1.34.79,2.68,1.14,4.03.13.51.23,1.03.32,1.55.05.27.1.53.15.8.01.07.04.13.06.2.06.18.11.36.14.55.14.83.26,1.67.39,2.51l.17,1.14c.13.83.25,1.66.37,2.49.08.56.12,1.13.17,1.69.08.97.14,1.95.21,2.92l.04.53c.02.31.05.63.05.94v1.97c.01,2.11.02,4.21-.01,6.31-.01.84-.08,1.68-.15,2.49-.03.39-.07.78-.09,1.17,0,.11,0,.23-.01.34,0,.21,0,.41-.03.62-.17,1.65-.34,3.3-.53,4.94-.08.74-.18,1.47-.27,2.21l-.14,1.1c0,.12-.01.23-.03.34l-.2.98c-.13.63-.26,1.25-.38,1.88-.08.41-.14.83-.21,1.24-.06.4-.13.79-.2,1.19-.11.61-.25,1.22-.38,1.83l-.09.4c-.25,1.12-.5,2.25-.77,3.36-.1.43-.22.85-.34,1.27l-.67,2.5c-.04.15-.09.3-.14.44-.03.09-.06.17-.09.26l-.29,1c-.14.48-.27.96-.42,1.44-.19.64-.39,1.27-.59,1.9l-.33,1.06c-.13.43-.26.86-.41,1.28-.2.58-.41,1.16-.62,1.74l-.43,1.19c-.07.21-.14.42-.21.63-.1.32-.21.63-.33.95-.16.41-.32.82-.49,1.24l-.67,1.71c-.24.62-.47,1.24-.73,1.85-.37.88-.76,1.76-1.15,2.63l-.65,1.48c-.12.27-.23.53-.34.8-.15.37-.31.74-.47,1.1-.14.32-.3.62-.45.93l-.25.5c-.2.41-.39.82-.58,1.22-.42.89-.84,1.77-1.29,2.64-.91,1.74-1.87,3.47-2.78,5.09l-.29.52c-.95,1.69-1.93,3.45-2.95,5.14-1,1.66-2.03,3.23-3.18,4.97-.96,1.46-2.08,3.15-3.25,4.77-1.24,1.73-2.56,3.5-4.03,5.39-1.27,1.64-2.58,3.34-4.01,4.97-1.94,2.23-3.92,4.36-5.77,6.32-1.4,1.49-2.84,2.91-4.18,4.22-2.04,1.99-4.01,3.77-6.03,5.42-.46.38-.93.77-1.39,1.15-.8.67-1.59,1.33-2.41,1.97-1.21.95-2.42,1.83-3.45,2.55l-.56.39c-1.29.92-2.62,1.86-3.98,2.73l-.4.25c-2.07,1.32-4.21,2.68-6.47,3.81-.49.25-.98.51-1.47.77-.66.36-1.32.71-2,1.03-1.2.57-2.43,1.1-3.65,1.62l-1.46.63c-.82.36-1.65.72-2.5,1.03-.65.24-1.31.44-1.97.65-.4.12-.8.25-1.2.38-.25.08-.49.18-.73.27-.28.11-.55.22-.83.31-.3.1-.61.17-.93.24l-2.6.61c-.21.05-.41.11-.62.16-.73.17-1.45.33-2.18.48-.24.05-.49.09-.74.12l-.63.11c-.14.03-.28.06-.42.08-.24.04-.48.07-.72.1l-1.02.15c-.3.05-.6.1-.89.13-.35.03-.69.06-1.03.08-.35.02-.69.04-1.04.08-1.26.13-2.52.16-3.76.16ZM79.79,205.26s.07,0,.11,0c.26.02.52.04.78.09.19.03.38.08.58.12.26.06.51.12.77.14,1.15.09,2.1.14,2.98.14h.84c1.72.02,3.35.04,4.99-.13.38-.04.75-.06,1.13-.09.32-.02.64-.04.96-.07.24-.02.49-.07.73-.11.17-.03.34-.06.51-.08l.6-.08c.23-.03.45-.06.68-.09.09-.01.18-.03.26-.05.12-.03.23-.05.35-.07l.45-.07c.2-.03.4-.06.59-.1.71-.15,1.42-.31,2.13-.47.18-.04.36-.09.55-.14.17-.04.34-.09.51-.13l2.17-.5c.23-.05.46-.1.69-.18.24-.08.48-.18.72-.27.28-.11.56-.22.85-.32.41-.14.83-.27,1.25-.4.62-.19,1.24-.39,1.85-.61.8-.29,1.58-.64,2.36-.98l1.47-.64c1.2-.52,2.4-1.03,3.57-1.59.64-.3,1.26-.64,1.88-.97.51-.28,1.02-.55,1.53-.81,2.15-1.08,4.24-2.4,6.25-3.69l.4-.25c1.32-.84,2.62-1.76,3.88-2.66l.56-.4c1-.71,2.18-1.56,3.35-2.48.8-.63,1.57-1.28,2.35-1.93.47-.39.93-.78,1.41-1.17,1.96-1.61,3.88-3.33,5.87-5.28,1.33-1.29,2.74-2.69,4.11-4.14,1.83-1.95,3.79-4.06,5.71-6.26,1.38-1.58,2.67-3.25,3.92-4.86,1.45-1.87,2.75-3.62,3.98-5.32,1.14-1.59,2.25-3.25,3.2-4.69,1.13-1.72,2.15-3.27,3.13-4.89,1-1.67,1.97-3.4,2.91-5.08l.29-.52c.9-1.6,1.85-3.32,2.75-5.03.44-.84.84-1.7,1.25-2.55.2-.42.39-.83.59-1.25l.27-.54c.14-.28.28-.55.4-.83.15-.34.3-.69.44-1.04.12-.28.23-.56.35-.84l.66-1.49c.38-.86.76-1.73,1.13-2.6.25-.59.48-1.18.7-1.77l.69-1.76c.16-.39.32-.78.47-1.18.11-.28.2-.57.29-.85.08-.23.15-.46.23-.68l.43-1.2c.21-.57.41-1.14.61-1.71.14-.4.26-.8.38-1.2l.34-1.08c.2-.62.39-1.24.58-1.87.14-.47.27-.94.41-1.41l.29-1.02c.04-.13.08-.25.12-.38.03-.1.07-.19.09-.29l.68-2.53c.11-.39.22-.78.31-1.17.26-1.11.51-2.22.76-3.33l.09-.4c.13-.58.26-1.16.37-1.74.07-.38.13-.76.19-1.14.07-.44.14-.87.22-1.3.12-.64.25-1.28.38-1.93l.2-1.12.14-1.11c.09-.73.18-1.45.26-2.18.19-1.64.36-3.28.53-4.92.02-.14.02-.27.02-.41,0-.15,0-.31.02-.46.03-.4.06-.81.1-1.21.07-.8.13-1.56.14-2.31.03-2.09.02-4.18.02-6.27v-1.98c0-.26-.02-.51-.04-.77l-.04-.54c-.07-.97-.14-1.93-.21-2.9-.04-.52-.08-1.04-.15-1.55-.11-.82-.24-1.64-.36-2.45l-.17-1.14c-.13-.83-.25-1.66-.39-2.49-.01-.08-.04-.14-.06-.21-.04-.14-.09-.29-.12-.43-.06-.28-.11-.57-.16-.85-.08-.46-.16-.92-.28-1.37-.35-1.33-.73-2.64-1.12-3.96l-.21-.74c-.24-.85-.47-1.66-.78-2.43l-.29-.74c-.47-1.21-.91-2.35-1.47-3.46-.24-.47-.45-.95-.67-1.43-.22-.49-.44-.98-.69-1.46-.47-.89-.99-1.8-1.61-2.77-1.53-2.41-3.1-4.5-4.8-6.38-2.19-2.42-4.68-4.56-7.4-6.36-1.17-.78-2.57-1.66-4.04-2.33-.72-.33-1.44-.66-2.17-.98l-.22-.1c-.57-.25-1.14-.5-1.72-.71-.8-.3-1.51-.53-2.19-.73l-.37-.1c-.94-.27-1.83-.53-2.73-.69l-2.37-.43c-.51-.09-1.04-.14-1.59-.18-.6-.05-1.21-.1-1.84-.22-.62-.12-1.15-.17-1.64-.16-.49,0-.98,0-1.48,0-1.07-.02-2.08-.03-3.07.11-.92.14-1.85.21-2.75.27-.45.03-.9.07-1.35.11-.09,0-.17.03-.26.05-.23.05-.47.1-.84.1-.28,0-.63.03-1.06.13-.47.11-.95.19-1.43.27-.42.07-.84.14-1.25.24-.63.14-1.25.31-1.88.47-.35.09-.71.19-1.06.28-.15.04-.3.07-.46.09-.12.02-.24.04-.36.08-.55.18-1.1.36-1.64.55l-2.73.9c-.35.11-.69.22-1.03.35-1.11.43-2.21.89-3.31,1.35-1.1.46-2.19.93-3.28,1.43-.81.37-1.6.77-2.39,1.18-1.08.57-2.15,1.14-3.21,1.74-1.1.62-2.18,1.26-3.26,1.93-1.46.9-2.88,1.79-4.28,2.73-1,.67-2.06,1.43-3.27,2.35-1.67,1.28-3.47,2.65-5.25,4.1-1.44,1.16-2.86,2.41-4.19,3.58-.64.56-1.25,1.16-1.86,1.76l-1.22,1.19c-1.05,1.03-2.11,2.06-3.13,3.12-1.48,1.54-2.91,3.11-4.11,4.45-1.07,1.19-2.16,2.44-3.23,3.74-.52.63-1.03,1.28-1.53,1.93-.33.42-.65.84-.99,1.26-.26.32-.52.64-.79.96-.43.51-.86,1.03-1.25,1.57-1.23,1.71-2.44,3.45-3.64,5.19l-.89,1.29c-.63.91-1.26,1.81-1.85,2.75-1.06,1.69-2.3,3.69-3.49,5.73-.73,1.25-1.43,2.52-2.13,3.79-.35.64-.71,1.28-1.06,1.92-1.2,2.14-2.27,4.37-3.26,6.46-.52,1.1-1.05,2.21-1.54,3.33-.16.36-.3.72-.44,1.09-.13.34-.26.67-.4,1-.16.38-.33.76-.51,1.13-.23.51-.47,1.02-.68,1.54-.58,1.45-1.13,2.92-1.67,4.38l-.05.13c-.34.92-.67,1.83-1,2.75l-.5,1.37c-.04.12-.1.24-.15.36-.03.06-.05.11-.07.17-.01.51-.21,1-.37,1.4-.07.17-.14.34-.18.52-.13.53-.3,1.05-.47,1.57-.11.32-.21.64-.31.96-.22.74-.41,1.49-.61,2.24l-.13.49c-.05.18-.09.36-.13.54-.06.24-.12.49-.18.73-.07.26-.15.51-.23.76-.11.35-.22.69-.3,1.05-.14.59-.26,1.18-.39,1.77-.1.47-.2.94-.3,1.4-.07.32-.16.64-.24.96-.12.45-.24.91-.32,1.37l-.09.57c-.14.93-.29,1.89-.58,2.84l-.11.94c-.07.63-.14,1.27-.23,1.9-.06.46-.14.93-.21,1.39-.08.52-.17,1.04-.24,1.57-.15,1.15-.27,2.3-.37,3.46-.04.49-.06.98-.09,1.47-.02.37-.03.75-.06,1.12-.03.46-.07.92-.11,1.38-.06.72-.12,1.45-.15,2.17-.03.63-.02,1.27-.02,1.91h.01v1.85c0,.36,0,.72,0,1.08,0,.78-.02,1.56.02,2.34.04.84.12,1.67.21,2.51.04.41.08.81.12,1.22l.06.73c.03.4.06.8.1,1.21.06.53.13,1.06.2,1.59l.23,1.59c.04.28.07.57.1.86.07.59.13,1.15.26,1.66.09.35.14.7.19,1.06.07.49.13.9.29,1.24l.08.17.15.82c.07.4.15.81.24,1.21.12.47.26.93.4,1.4l.44,1.51c.23.79.45,1.59.71,2.37.2.59.44,1.17.68,1.76l.64,1.56c.39.96.79,1.96,1.23,2.9.46.99,1,1.93,1.58,2.93l.1.17c.5.86,1.03,1.78,1.62,2.62.87,1.24,1.8,2.56,2.8,3.79,1.17,1.43,2.57,2.87,4.28,4.43,1.49,1.35,3.07,2.56,4.71,3.61,1.07.69,2.07,1.27,3.06,1.8.74.39,1.51.73,2.32,1.09l.48.21c.59.26,1.18.5,1.79.72l.36.13c.71.26,1.38.51,2.06.71.78.23,1.58.41,2.38.6l.73.17c.66.16,1.33.31,2,.45.05-.01.12-.02.19-.02ZM42.65,169.19s0,.02.01.03c0,0,0-.02-.01-.03Z"/>
    <path class="cls-3" d="M83.51,168.56c-1.04-1.16-2.05-2.35-3.04-3.55-1.74-2.09-3.27-4.33-4.62-6.69-1.1-1.91-2.03-3.89-2.77-5.97-.84-2.34-1.37-4.76-1.57-7.23-.12-1.47-.09-2.94.08-4.42.19-1.62.48-3.2.95-4.76.57-1.91,1.36-3.72,2.33-5.46,1.9-3.43,4.34-6.44,7.1-9.22,3.3-3.32,6.97-6.18,10.82-8.81,3.71-2.53,7.56-4.83,11.55-6.89,2.95-1.53,5.94-3,8.95-4.41,2.51-1.18,5.05-2.27,7.61-3.34,2.61-1.09,5.26-2.11,7.89-3.16.42-.17.83-.35,1.24-.52-.1-.1-.18-.12-.26-.11-1.42.16-2.84.34-4.26.5-1.84.2-3.69.41-5.54.57-1.34.12-2.69.12-4.03.23-1.46.13-2.91,0-4.36-.08-.55-.03-1.11-.12-1.64-.27-.46-.13-.93-.33-1.33-.59-.59-.38-.72-.94-.4-1.56.17-.34.4-.66.65-.94,1-1.11,2.25-1.89,3.51-2.66,1.31-.8,2.68-1.51,4.01-2.27.09-.05.17-.13.36-.28-.29,0-.44-.01-.58,0-1.2.13-2.32.55-3.44.96-1.77.65-3.38,1.63-5.01,2.56-1.45.82-2.82,1.78-4.3,2.53-1.46.74-2.79,1.65-4.1,2.6-3.48,2.53-6.85,5.18-10.02,8.1-2.49,2.29-4.86,4.68-7.06,7.24-2.47,2.88-4.68,5.93-6.58,9.21-1.87,3.23-3.37,6.61-4.4,10.19-.4,1.37-.71,2.77-.97,4.17-.25,1.34-.48,2.69-.57,4.04-.11,1.6-.14,3.21-.09,4.81.05,1.66.16,3.33.4,4.98.24,1.68.63,3.35,1.04,5,.35,1.42.77,2.84,1.25,4.22.51,1.47,1.07,2.92,1.72,4.33.96,2.09,1.96,4.17,3.06,6.19,1.32,2.44,2.84,4.76,4.42,7.05,2.2,3.19,4.58,6.23,7.09,9.17.92,1.07,1.89,2.09,2.85,3.13.32.35.71.58,1.19.71.06-.44.13-.84.18-1.24.13-1.04.27-2.07.39-3.11.13-1.15.25-2.29.38-3.44.1-.91.21-1.82.32-2.73.16-1.36.32-2.71.48-4.07.12-.99.23-1.99.34-2.98.09-.87.18-1.74.27-2.61.06-.66.1-1.32.18-1.98.19-1.74.4-3.47.58-5.21.15-1.44.28-2.88.39-4.33.18-2.3.36-4.6.52-6.9.11-1.68.21-3.37.25-5.05.04-1.75.03-3.51,0-5.26-.02-.78-.14-1.57-.25-2.35-.05-.33-.16-.66-.29-.98-.16-.37-.42-.43-.7-.15-.25.26-.5.55-.66.86-.53,1.04-1.11,2.08-1.52,3.17-1.05,2.79-2.08,5.6-3.02,8.44-.86,2.59-1.6,5.21-2.36,7.83-.74,2.54-1.46,5.08-2.18,7.63-.47,1.66-.9,3.33-1.37,4.99l-1.07.17Z"/>
    <path class="cls-3" d="M95.44,186.88c.25-1.6.51-3.19.75-4.79.19-1.24.34-2.49.53-3.74.28-1.85.59-3.7.88-5.55.12-.76.21-1.52.32-2.28.18-1.18.36-2.36.54-3.54.19-1.22.38-2.44.57-3.66.24-1.45.49-2.9.73-4.35.12-.71.22-1.43.33-2.15.29-1.77.59-3.53.89-5.3.18-1.07.33-2.15.53-3.22.29-1.59.6-3.18.9-4.77.21-1.09.4-2.18.61-3.27.34-1.71.66-3.43,1.06-5.13.41-1.74.9-3.46,1.38-5.18.14-.51.3-1.02.73-1.48.09.17.18.28.2.41.13.91.3,1.81.36,2.72.27,4.1.11,8.21.09,12.32-.01,1.65-.08,3.29-.14,4.94-.07,1.84-.16,3.67-.24,5.51-.08,1.69-.15,3.37-.23,5.06-.03.7-.08,1.41-.12,2.11,0,.13-.03.27,0,.38.03.1.13.25.22.25.08,0,.21-.11.26-.2.06-.11.05-.25.07-.33.26-.15.51-.27.72-.43,3.44-2.58,6.69-5.38,9.77-8.38,2.7-2.62,5.27-5.37,7.57-8.36,1.22-1.59,2.45-3.19,3.56-4.85,1.1-1.65,2.09-3.37,3.08-5.09,1.34-2.32,2.47-4.74,3.41-7.24.75-2.02,1.42-4.06,2.03-6.13.46-1.57.79-3.19,1.11-4.8.24-1.21.41-2.44.53-3.67.14-1.38.17-2.77.32-4.14.19-1.75.13-3.5.07-5.26-.05-1.43-.12-2.86-.26-4.28-.13-1.33-.37-2.66-.57-3.98-.1-.63-.21-1.26-.32-1.89-.4-2.42-.98-4.81-1.64-7.17-.78-2.77-1.67-5.52-2.74-8.19-.98-2.46-2.05-4.88-3.09-7.31-.28-.65-.56-1.3-.91-1.91-.43-.76-.93-1.47-1.39-2.21-1.19-1.95-2.4-3.89-3.55-5.86-1.04-1.77-2.05-3.55-3.01-5.36-.74-1.39-1.5-2.78-1.82-4.35-.03-.14-.06-.29-.07-.44,0-.06.04-.12.08-.26.2.06.41.08.57.18.67.45,1.37.88,1.99,1.4,2.88,2.44,5.5,5.14,8.07,7.89,2.21,2.36,4.4,4.72,6.57,7.11,1.65,1.82,3.27,3.67,4.9,5.5.27.3.52.6.98.22.5.6.99,1.17,1.45,1.75,2.24,2.84,4.04,5.93,5.31,9.32.79,2.12,1.34,4.31,1.74,6.54.54,3.04.53,6.09.41,9.14-.07,1.87-.3,3.74-.7,5.58-.3,1.37-.51,2.77-.86,4.13-.39,1.53-.83,3.05-1.35,4.53-.72,2.07-1.49,4.13-2.3,6.17-.58,1.44-1.25,2.85-1.91,4.26-1.61,3.42-3.41,6.75-5.36,9.98-1.41,2.34-2.87,4.66-4.38,6.93-1.65,2.49-3.36,4.95-5.11,7.38-1.57,2.18-3.21,4.33-4.87,6.44-2.23,2.81-4.47,5.62-6.79,8.36-2.71,3.19-5.48,6.34-8.29,9.45-2.55,2.82-5.17,5.58-7.78,8.36-1.35,1.43-2.73,2.83-4.1,4.24-.52.53-1.05,1.06-1.6,1.57-.18.17-.4.3-.61.45-.05-.03-.09-.05-.14-.08Z"/>
    <path class="cls-3" d="M158.21,53.25c.01,3.19-.89,5.81-2.29,8.28-1.28,2.25-2.96,4.12-5.1,5.57-1.03.7-2.16,1.24-3.37,1.51-2.08.47-4.04.2-5.65-1.37-1.1-1.07-1.67-2.41-1.91-3.9-.56-3.56.34-6.82,2.08-9.9,1.01-1.78,2.28-3.36,3.86-4.67,1.45-1.21,3.04-2.15,4.91-2.5,2.96-.55,5.53.47,6.8,3.53.43,1.04.71,2.17.67,3.44Z"/>
    <ellipse class="cls-3" cx="121.74" cy="88.73" rx="6.44" ry="3.91" transform="translate(-17.72 31.78) rotate(-13.87)"/>
    <path class="cls-3" d="M97.73,149.31c-3.66.32-4.48,1.92-4.48,1.92l.55,2.15s5.24-2.23,8.77-1.48l-.55-2.15s-.62-.76-4.28-.44Z"/>
  </g>
</svg>